HIERARCHY
ROOT Hips
{
	OFFSET 0.000000 0.000000 0.000000 
	CHANNELS 6 Xposition Yposition Zposition Zrotation Yrotation Xrotation
	JOINT LeftUpLeg
	{
		OFFSET 1.363060 -1.794630 0.839290 
		CHANNELS 3 Zrotation Yrotation Xrotation
		JOINT LeftLeg
		{
			OFFSET 2.448110 -6.726130 0.000000 
			CHANNELS 3 Zrotation Yrotation Xrotation
			JOINT LeftFoot
			{
				OFFSET 2.562200 -7.039590 0.000000 
				CHANNELS 3 Zrotation Yrotation Xrotation
				JOINT LeftToeBase
				{
					OFFSET 0.157640 -0.433110 2.322550 
					CHANNELS 3 Zrotation Yrotation Xrotation
					End Site
					{
						OFFSET 0.000000 0.000000 0.000000 
					}
				}
			}
		}
	}
	JOINT RightUpLeg
	{
		OFFSET -1.305520 -1.794630 0.839290 
		CHANNELS 3 Zrotation Yrotation Xrotation
		JOINT RightLeg
		{
			OFFSET -2.542530 -6.985550 0.000000 
			CHANNELS 3 Zrotation Yrotation Xrotation
			JOINT RightFoot
			{
				OFFSET -2.568260 -7.056230 0.000000 
				CHANNELS 3 Zrotation Yrotation Xrotation
				JOINT RightToeBase
				{
					OFFSET -0.164730 -0.452590 2.363150 
					CHANNELS 3 Zrotation Yrotation Xrotation
					End Site
					{
						OFFSET 0.000000 0.000000 0.000000 
					}
				}
			}
		}
	}
	JOINT Spine
	{
		OFFSET 0.028270 2.035590 -0.193380 
		CHANNELS 3 Zrotation Yrotation Xrotation
		JOINT Spine1
		{
			OFFSET 0.056720 2.048850 -0.042750 
			CHANNELS 3 Zrotation Yrotation Xrotation
			JOINT Neck1
			{
				OFFSET -0.054170 1.746240 0.172020 
				CHANNELS 3 Zrotation Yrotation Xrotation
				JOINT Head
				{
					OFFSET 0.104070 1.761360 -0.123970 
					CHANNELS 3 Zrotation Yrotation Xrotation
					End Site
					{
						OFFSET 0.000000 0.000000 0.000000 
					}
				}
			}
			JOINT LeftArm
			{
				OFFSET 3.362410 1.200890 -0.311210 
				CHANNELS 3 Zrotation Yrotation Xrotation
				JOINT LeftForeArm
				{
					OFFSET 4.983000 -0.000000 -0.000000 
					CHANNELS 3 Zrotation Yrotation Xrotation
					JOINT LeftHand
					{
						OFFSET 3.483560 -0.000000 -0.000000 
						CHANNELS 3 Zrotation Yrotation Xrotation
						JOINT LeftHandIndex1
						{
							OFFSET 0.715260 -0.000000 -0.000000 
							CHANNELS 3 Zrotation Yrotation Xrotation
							End Site
							{
								OFFSET 0.000000 0.000000 0.000000 
							}
						}
					}
				}
			}
			JOINT RightArm
			{
				OFFSET -3.136600 1.374050 -0.404650 
				CHANNELS 3 Zrotation Yrotation Xrotation
				JOINT RightForeArm
				{
					OFFSET -5.241900 -0.000000 -0.000000 
					CHANNELS 3 Zrotation Yrotation Xrotation
					JOINT RightHand
					{
						OFFSET -3.444170 -0.000000 -0.000000 
						CHANNELS 3 Zrotation Yrotation Xrotation
						JOINT RightHandIndex1
						{
							OFFSET -0.622530 -0.000000 -0.000000 
							CHANNELS 3 Zrotation Yrotation Xrotation
							End Site
							{
								OFFSET 0.000000 0.000000 0.000000 
							}
						}
					}
				}
			}
		}
	}
}
MOTION
Frames: 9
Frame Time: 0.041667
-8.446300 1.646000 1.085700 33.010100 84.510400 134.331000 -16.788300 2.590500 -23.963000 3.897600 12.022900 35.813000 0.464600 8.860700 -19.021400 1.430200 7.561800 21.390800 16.929900 -10.620500 -21.864500 -2.006900 -8.880500 25.422100 -0.215700 -15.039400 -23.469000 -3.667100 -11.703700 34.691600 -1.459500 2.886900 -3.057300 -0.764400 1.506100 6.665900 -16.266400 30.789300 24.764000 -3.349600 13.557600 15.677300 -0.636900 -34.275000 -34.809600 142.054400 -46.804500 -103.074100 0.000000 0.000000 -18.170500 -7.125000 0.000000 0.000000 -1.620000 10.271800 -36.524300 -148.581900 42.078300 -107.650900 0.000000 0.000000 -25.853000 7.125000 0.000000 0.000000 
-8.444400 1.645300 1.086700 35.673500 84.818600 136.740000 -16.355600 2.778900 -23.782800 3.910700 12.040500 35.875600 0.501800 8.738800 -19.307500 1.578200 7.925800 22.489000 17.409900 -10.794300 -21.605300 -1.972700 -8.809000 25.199700 -0.242100 -15.583000 -24.391100 -2.774100 -10.320000 30.019400 -1.227800 2.502600 -3.031800 -0.945500 1.323900 6.510400 -16.250700 31.214200 24.656300 -3.206500 13.722800 15.569300 -1.100700 -33.481300 -34.795400 142.141800 -46.748500 -103.137800 0.000000 0.000000 -18.199800 -7.125000 0.000000 0.000000 -1.646600 11.168900 -36.414600 -148.605500 42.059100 -107.666700 0.000000 0.000000 -25.647000 7.125000 0.000000 0.000000 
-8.441100 1.644800 1.085500 38.448800 85.061700 139.359000 -15.968400 2.887100 -23.664900 3.919100 12.052000 35.916100 0.538100 8.581700 -19.548000 1.677900 8.160100 23.201600 17.842200 -10.986000 -21.533300 -1.966500 -8.796000 25.159300 -0.294900 -15.981000 -25.339700 -1.980200 -8.824600 25.248200 -1.061600 2.307700 -3.020900 -1.069700 1.233700 6.418400 -16.450700 31.411100 24.423500 -3.236300 13.808200 15.456500 -1.183700 -33.061300 -34.803900 142.161000 -46.736200 -103.151700 0.000000 0.000000 -18.208700 -7.125000 0.000000 0.000000 -1.788600 11.613200 -36.344600 -148.529200 42.121200 -107.615600 0.000000 0.000000 -25.574100 7.125000 0.000000 0.000000 
-8.442000 1.645800 1.082600 37.559200 84.977800 138.474000 -16.109300 2.893400 -23.702600 3.932000 12.069300 35.977700 0.558800 8.529900 -19.716700 1.698400 8.207500 23.346000 17.763200 -11.142200 -21.567400 -1.957400 -8.776800 25.099500 -0.391000 -16.150700 -26.333000 -1.321500 -7.280500 20.549100 -1.073000 2.317400 -3.012700 -1.015500 1.236200 6.427800 -16.595300 31.353100 24.112900 -3.316900 13.800700 15.288000 -1.119400 -33.099000 -34.820000 142.116300 -46.764900 -103.119200 0.000000 0.000000 -18.163200 -7.125000 0.000000 0.000000 -1.883700 11.594200 -36.361000 -148.485500 42.156600 -107.586300 0.000000 0.000000 -25.581800 7.125000 0.000000 0.000000 
-8.446500 1.643300 1.083300 36.966100 84.963800 137.943000 -16.174400 2.941700 -23.851000 3.954300 12.099400 36.084500 0.544900 8.612500 -19.647100 1.404900 7.497400 21.197700 17.763900 -11.181400 -21.598800 -1.947800 -8.756400 25.036200 -0.506700 -16.330500 -27.444000 -0.804600 -5.724600 15.987400 -1.091900 2.330400 -3.008400 -1.003400 1.242200 6.482500 -16.708000 31.308300 23.750800 -3.385500 13.806600 15.093800 -1.249500 -33.129400 -34.625400 142.164200 -46.734100 -103.154100 0.000000 0.000000 -17.641400 -7.125000 0.000000 0.000000 -1.992900 11.525000 -36.444400 -148.458200 42.178800 -107.568000 0.000000 0.000000 -25.753500 7.125000 0.000000 0.000000 
-8.449700 1.638300 1.084200 37.979100 84.985100 139.136000 -16.101500 2.879400 -24.096800 3.973400 12.125000 36.175500 0.533000 8.661400 -19.566900 0.914700 6.093800 17.056800 17.975200 -11.373300 -21.858500 -1.944500 -8.749600 25.015000 -0.663500 -16.958800 -29.294900 -0.118600 -2.220300 6.114900 -1.085100 2.322000 -3.025100 -1.028700 1.240800 6.617600 -16.827100 31.327800 23.610400 -3.437700 13.824400 15.045700 -1.439500 -33.184500 -34.342700 142.218400 -46.699200 -103.193600 0.000000 0.000000 -16.692100 -7.125000 0.000000 0.000000 -2.200800 11.405200 -36.573300 -148.431800 42.200200 -107.550200 0.000000 0.000000 -26.170800 7.125000 0.000000 0.000000 
-8.450100 1.635700 1.083400 41.046700 85.123600 142.436000 -15.792300 2.757400 -24.391500 3.987200 12.143300 36.240900 0.548300 8.627900 -19.697100 0.832000 5.819100 16.260500 18.397300 -11.440900 -22.149400 -1.945000 -8.750500 25.017900 -0.647200 -17.053900 -29.287600 -0.151600 -2.509100 6.914800 -1.026600 2.299900 -3.041800 -1.131900 1.237800 6.797400 -16.746600 31.378500 23.744500 -3.385200 13.836400 15.099700 -1.337200 -33.250100 -34.360900 142.142900 -46.747800 -103.138600 0.000000 0.000000 -16.234000 -7.125000 0.000000 0.000000 -2.322700 11.334100 -36.746700 -148.460100 42.177300 -107.569200 0.000000 0.000000 -26.548100 7.125000 0.000000 0.000000 
-8.443100 1.636400 1.081700 41.068400 85.038800 142.710000 -15.872900 2.554300 -24.656200 3.990200 12.147400 36.255300 0.663500 8.415200 -20.673600 0.877800 5.972900 16.705900 18.364300 -11.357700 -22.449900 -1.950700 -8.762700 25.055700 -0.652500 -17.133700 -29.413900 -0.154800 -2.534800 6.986100 -1.030400 2.288100 -3.093500 -1.089800 1.232400 6.886300 -16.800900 31.394800 23.702200 -3.404900 13.844800 15.080500 -1.192700 -33.260800 -34.415600 142.091700 -46.780600 -103.101300 0.000000 0.000000 -16.277100 -7.125000 0.000000 0.000000 -2.342700 11.284000 -36.785500 -148.501000 42.144100 -107.596700 0.000000 0.000000 -26.559000 7.125000 0.000000 0.000000 
-8.438700 1.638200 1.079700 39.652600 84.798300 141.426000 -16.174500 2.385800 -24.758300 3.977600 12.130600 36.195600 0.729400 8.313500 -21.223300 0.888700 6.008900 16.810300 18.091500 -11.420900 -22.702100 -1.967500 -8.798000 25.165500 -0.666900 -17.053100 -29.424200 -0.120000 -2.233300 6.150900 -1.092300 2.251800 -3.133200 -1.015000 1.210300 6.879800 -16.833500 31.444700 23.698200 -3.401500 13.862900 15.092000 -1.129500 -33.209300 -34.405200 142.087500 -46.783400 -103.098200 0.000000 0.000000 -16.360500 -7.125000 0.000000 0.000000 -2.310100 11.270300 -36.686400 -148.490100 42.153000 -107.589300 0.000000 0.000000 -26.324000 7.125000 0.000000 0.000000 
